# xmcd CD database file
# Copyright (C) 1997 Ti Kan
# 
# Track frame offsets:
#     183
#     8168
#     20318
#     34550
#     43840
#     55698
#     67895
#     86368
#     103815
#     120820
#     139105
#     151800
# 
# Disc length: 2193 seconds
# 
# Revision: 1
# Processed by: cddbd v1.4b41PL1 Copyright (c) Steve Scherf et al.
# Submitted via: DiscPlay 4.0.4
# 
DISCID=84088f0c
DTITLE=Vinicius De Moraes and Chico Buarque - A Arte Do Encontro
DYEAR=1900
DGENRE=
TTITLE0=Tem Mais Samba
TTITLE1=Meu Refr o
TTITLE2=Ela Desatinou
TTITLE3=A Rita
TTITLE4=Pedro Pedreiro
TTITLE5=Voc  N o Ouviu
TTITLE6=A Tonga Da Mironga Do Kabulet 
TTITLE7=Samba Da Rosa
TTITLE8=Samba Da Ben  o
TTITLE9=Tarde Em Itapo 
TTITLE10=Canto De Ossanha
TTITLE11=Berimbau/Consola  o
EXTD=
EXTT0=
EXTT1=
EXTT2=
EXTT3=
EXTT4=
EXTT5=
EXTT6=
EXTT7=
EXTT8=
EXTT9=
EXTT10=
EXTT11=
PLAYORDER=
